<svg width="26" height="25" viewBox="0 0 26 25" fill="none" xmlns="http://www.w3.org/2000/svg">
<path d="M11.1245 3.2666L12.2085 2.18262C12.6675 1.72363 13.4097 1.72363 13.8638 2.18262L23.356 11.6699C23.8149 12.1289 23.8149 12.8711 23.356 13.3252L13.8638 22.8174C13.4048 23.2764 12.6626 23.2764 12.2085 22.8174L11.1245 21.7334C10.6606 21.2695 10.6704 20.5127 11.144 20.0586L17.0278 14.4531H2.99463C2.34521 14.4531 1.82275 13.9307 1.82275 13.2812V11.7187C1.82275 11.0693 2.34521 10.5469 2.99463 10.5469H17.0278L11.144 4.94141C10.6655 4.4873 10.6558 3.73047 11.1245 3.2666Z" fill="black"/>
</svg>
